# xmcd CD database file
#
# Track frame offsets:
#	150
#	16154
#	29678
#	43011
#	61148
#	72286
#	87117
#	101052
#	114976
#	129209
#	141460
#	152899
#	166689
#	179229
#
# Disc length: 2520 seconds
#
# Revision: 0
# Processed by: cddbd v1.4PL0 Copyright (c) Steve Scherf et al.
# Submitted via: CDex 1.40Beta6
#
DISCID=bc09d60e
DTITLE=Teodoro e Sampaio - Para Sempre
DYEAR=1900
DGENRE=Country
TTITLE0=Tô Apaixonado
TTITLE1=Pinga em Mim
TTITLE2=Vestido de Seda
TTITLE3=Paixão Proibida - Outra Vez
TTITLE4=Passe Livre
TTITLE5=Esta Noite te Amarei
TTITLE6=Pobre Menina Rica
TTITLE7=A Voz do Povo
TTITLE8=O Amor Venceu de novo
TTITLE9=Sete Noites de Paixão
TTITLE10=Cão de Guarda
TTITLE11=Casaco Verde
TTITLE12=Cunhada
TTITLE13=Dois, Fogão
EXTD=
EXTT0=
EXTT1=
EXTT2=
EXTT3=
EXTT4=
EXTT5=
EXTT6=
EXTT7=
EXTT8=
EXTT9=
EXTT10=
EXTT11=
EXTT12=
EXTT13=
PLAYORDER=
